<?xml version="1.0" encoding="UTF-8" standalone="no"?>
<!-- Created with Inkscape (http://www.inkscape.org/) -->

<svg
   width="75.989174mm"
   height="164.1366mm"
   viewBox="0 0 75.989174 164.1366"
   version="1.1"
   id="svg1"
   xml:space="preserve"
   inkscape:export-filename="bitmap.svg"
   inkscape:export-xdpi="96"
   inkscape:export-ydpi="96"
   xmlns:inkscape="http://www.inkscape.org/namespaces/inkscape"
   xmlns:sodipodi="http://sodipodi.sourceforge.net/DTD/sodipodi-0.dtd"
   xmlns="http://www.w3.org/2000/svg"
   xmlns:svg="http://www.w3.org/2000/svg"><sodipodi:namedview
     id="namedview1"
     pagecolor="#ffffff"
     bordercolor="#000000"
     borderopacity="0.25"
     inkscape:showpageshadow="2"
     inkscape:pageopacity="0.0"
     inkscape:pagecheckerboard="0"
     inkscape:deskcolor="#d1d1d1"
     inkscape:document-units="mm"
     showguides="true"><sodipodi:guide
       position="-61.889164,292.17072"
       orientation="1,0"
       id="guide52"
       inkscape:locked="false" /></sodipodi:namedview><defs
     id="defs1"><linearGradient
       id="swatch51"
       inkscape:swatch="solid"><stop
         style="stop-color:#cd0038;stop-opacity:1;"
         offset="0"
         id="stop51" /></linearGradient></defs><g
     inkscape:label="Capa 1"
     inkscape:groupmode="layer"
     id="layer1"
     transform="translate(-31.564866,-69.370993)"><path
       id="path2"
       style="fill:#cd0038;fill-opacity:1;stroke-width:0.124512"
       d="m 93.014354,120.47911 -11.35173,0.0584 0.0841,4.20641 3.71955,2.57073 c 0,0 0.3483,4.33713 0.17801,4.63417 -0.17029,0.29704 -4.41776,4.77301 -4.69935,4.79249 -0.28159,0.0195 -4.25456,-4.65265 -4.25456,-4.65265 0,0 -0.0225,-4.79927 0.23371,-4.90557 0.25617,-0.10631 3.41823,-2.33922 3.41823,-2.33922 l -0.0297,-4.29955 -35.681141,0.18336 c -0.917953,14.46311 10.97547,22.54895 15.744661,23.05122 0.667492,0.0703 0.285745,1.99316 0.285745,1.99316 l 17.290355,-0.003 0.19601,-1.76359 c 16.36648,-7.67474 14.86603,-23.52617 14.86603,-23.52617 z m -44.382131,4.81292 c 0.130713,-10e-4 0.238556,0.0971 0.278693,0.41269 0.0988,0.77679 -0.210843,1.03014 -0.210843,1.03014 -0.553485,0.0917 -0.897938,-1.08128 -0.647608,-1.17362 0.148634,-0.0548 0.388718,-0.26775 0.579758,-0.26921 z m 32.279921,1.22421 -0.22033,0.0233 -2.57073,1.54448 -0.0418,3.5999 2.76017,3.19451 3.18794,-2.89539 -0.044,-3.99824 z m -31.786251,1.80615 c 0.467874,0 1.17046,1.68942 1.17046,1.68942 l 1.787425,3.10355 c 0,0 1.014981,0.67415 1.015549,1.19162 6.12e-4,0.51746 -0.416752,1.10245 -0.826593,0.76458 -0.409842,-0.33787 -1.127902,-1.62571 -1.127902,-1.62571 l -1.291566,-2.1364 -0.761419,-1.80712 c 0,0 -0.43383,-1.17994 0.03405,-1.17994 z m 4.975851,7.51253 1.0423,0.47835 c 0,0 0.978555,0.8678 1.116715,1.1369 0.138159,0.26911 -0.397132,0.45653 -0.593376,0.49027 -0.196244,0.0337 -0.923496,-0.63735 -1.188942,-0.7838 -0.265446,-0.14645 -0.710132,-0.85195 -0.887876,-0.98661 z"
       inkscape:export-filename="LOGO ETC.svg"
       inkscape:export-xdpi="96"
       inkscape:export-ydpi="96" /><path
       style="fill:#cd0038;fill-opacity:1;stroke-width:0.124512"
       d="m 37.264669,147.31278 64.439221,0.21036 c 0,0 -6.597216,5.72352 -18.786536,6.58412 -0.36107,0.0255 -0.18617,1.43771 -0.18617,1.43771 l -25.700855,-0.0644 -0.324121,-1.68757 c 0,0 -12.944041,-0.40984 -19.441539,-6.48024 z"
       id="path3"
       sodipodi:nodetypes="ccscccc" /><path
       style="fill:#cd0038;fill-opacity:1;stroke-width:0.124512"
       d="m 94.432904,122.15749 -0.23077,2.56188 c 0,0 4.98395,-3.34557 7.076266,0.19319 2.09232,3.53876 -0.15628,7.80904 -2.455826,9.08133 -2.29953,1.27231 -10.00174,4.06473 -10.00174,4.06473 l -4.02168,3.70456 4.48787,-0.9806 c 0,0 -0.7731,3.42573 2.36604,2.22409 1.55719,-0.59608 -0.0447,-3.11609 -0.0447,-3.11609 0,0 8.807596,-3.07686 10.772786,-5.67583 1.96519,-2.59897 2.95581,-7.60442 1.75787,-9.85927 -1.19793,-2.25485 -5.409626,-5.63437 -9.706106,-2.19799 z"
       id="path4"
       sodipodi:nodetypes="ccsscccscssc" /><ellipse
       style="fill:#6f005e;fill-opacity:1;stroke-width:0.124512"
       id="path5"
       cx="94.059639"
       cy="107.59448"
       rx="1.336269"
       ry="1.3782678" /><ellipse
       style="fill:#6f005e;fill-opacity:1;stroke-width:0.124512"
       id="path6"
       cx="99.691544"
       cy="107.7603"
       rx="1.3559495"
       ry="1.350648" /><ellipse
       style="fill:#6f005e;fill-opacity:1;stroke-width:0.124512"
       id="path7"
       cx="101.04416"
       cy="114.21745"
       rx="1.3539299"
       ry="1.2798569" /><ellipse
       style="fill:#6f005e;fill-opacity:1;stroke-width:0.124512"
       id="path8"
       cx="35.585976"
       cy="101.81412"
       rx="2.0331616"
       ry="1.871068" /><ellipse
       style="fill:#6f005e;fill-opacity:1;stroke-width:0.124512"
       id="path9"
       cx="45.164505"
       cy="93.517258"
       rx="2.0350246"
       ry="1.9205165" /><path
       id="path10"
       style="fill:#6f005e;fill-opacity:1;stroke-width:0.124512"
       d="m 36.111979,88.151534 a 4.5472496,3.9415396 0 0 0 -2.492424,0.64785 c 0.350327,0.21218 1.354065,1.34458 1.354065,1.34458 l 1.824633,2.59553 0.34411,0.60919 0.365024,-0.80714 0.109677,-2.77866 0.0124,-0.38399 c 0,0 0.202855,-0.29944 0.350433,-0.31517 0.147577,-0.0157 0.299859,0.29363 0.335599,0.49853 0.03574,0.20491 0.17631,1.77502 0.17631,1.77502 l -0.269938,2.5255 0.0107,0.72154 0.600672,0.65418 a 4.5472496,3.9415396 0 0 0 1.826091,-3.14539 4.5472496,3.9415396 0 0 0 -4.547355,-3.94157 z m -2.622529,0.73223 a 4.5472496,3.9415396 0 0 0 -1.924583,3.20934 4.5472496,3.9415396 0 0 0 0.04499,0.5462 c 0.04793,-0.0663 0.08609,-0.11746 0.08609,-0.11746 0,0 0.664952,0.0963 0.905628,0.18166 0.240677,0.0854 1.769186,0.65248 1.769186,0.65248 l 1.140548,0.32659 0.850425,0.14835 -0.946484,-1.35188 -1.247793,-1.86452 c 0,0 -0.367699,-0.72603 -0.367699,-0.97566 0,-0.20235 -0.274146,-0.55536 -0.310306,-0.7551 z m -1.529161,4.81121 a 4.5472496,3.9415396 0 0 0 4.15169,2.33971 4.5472496,3.9415396 0 0 0 1.541806,-0.24392 l -0.905142,-1.33631 c 0,0 -0.561847,0.19052 -0.955239,0.0975 -0.393392,-0.093 -1.145152,-0.1462 -1.360875,-0.19455 -0.215722,-0.0484 -1.237291,-0.34577 -1.408053,-0.44163 -0.09322,-0.0523 -0.602407,-0.134 -1.064187,-0.22082 z" /><path
       id="path11"
       style="fill:#6f005e;fill-opacity:1;stroke-width:0.128698"
       d="m 48.458345,100.39162 a 7.8864318,8.1086749 0 0 0 -4.71175,1.63203 h 0.144939 l 0.442114,0.59167 0.94843,1.07294 0.832916,1.14201 0.988312,1.12401 1.496817,1.49657 0.143237,-0.94332 c 0,0 -0.01872,-1.81597 -0.01872,-2.01164 0,-0.19567 -0.176798,-0.82246 -0.176798,-0.82246 l -0.244889,-1.19113 c 0,0 -0.185841,-0.85925 -0.28307,-1.12791 -0.09723,-0.26862 0.246601,-0.26258 0.632773,-0.29303 0.386172,-0.0305 0.528203,0.71886 0.528203,0.71886 l 0.158801,0.84021 0.04912,1.02892 0.159288,1.32853 c 0,0 0.062,1.68054 0.05642,2.22225 -0.0056,0.54171 -0.176067,1.0457 -0.176067,1.0457 l 2.09457,2.37448 0.129619,-0.29888 0.272369,-1.01992 0.140319,-2.55176 0.05739,-2.18431 0.08463,-1.63276 c 0,0 0.08243,-0.90012 0.61575,-0.8317 0.533315,0.0684 0.400772,0.72178 0.400772,0.72178 l -0.08195,1.51287 -0.03794,1.86743 -0.108705,2.32998 c 0,0 0.109688,1.85841 0.03696,2.1916 -0.07272,0.33318 -0.169197,0.59733 -0.15418,1.00193 0.01502,0.4046 0.335634,0.49557 0.497804,0.59605 0.162169,0.10048 1.219583,1.15466 1.219583,1.15466 l 0.03259,0.0455 a 7.8864318,8.1086749 0 0 0 1.716658,-5.02254 7.8864318,8.1086749 0 0 0 -7.886314,-8.10859 z m -5.886587,2.72296 a 7.8864318,8.1086749 0 0 0 -1.835819,3.83507 l 1.939174,0.65879 1.044731,0.54206 0.954023,0.76847 0.750962,0.67388 0.481024,0.25437 0.985637,0.56055 1.494871,0.71423 1.864273,0.87329 c 0,0 0.809306,0.2675 1.089721,0.2675 0.280415,0 0.149803,-0.0841 0.149803,-0.0841 l -0.893956,-0.96813 -0.8317,-0.85698 -0.822944,-1.01093 -1.575853,-1.42776 -1.597496,-1.65756 -1.027222,-1.32026 -0.729805,-0.7495 -0.538173,-0.52164 z m -1.925799,4.31803 a 7.8864318,8.1086749 0 0 0 -0.07417,1.0676 7.8864318,8.1086749 0 0 0 2.551033,5.95249 c 0.03512,-0.0261 0.07493,-0.0558 0.107732,-0.0805 0.448939,-0.33784 0.649803,-0.42482 1.194535,-0.57514 0.544732,-0.15031 1.495709,-0.1114 1.65124,-0.0861 0.155531,0.0253 1.061526,-0.22251 1.231013,-0.23517 0.169486,-0.0127 1.243554,-0.14131 1.41316,-0.16366 0.169606,-0.0223 1.588741,-0.11673 1.588741,-0.11673 0,0 -0.697307,-0.47099 -1.276975,-0.73248 -0.579668,-0.26149 -1.461554,-0.7247 -1.461554,-0.7247 l -1.438452,-0.69089 c 0,0 -1.223815,-0.69513 -1.377412,-0.72276 -0.153595,-0.0276 -1.340181,-1.34237 -1.517974,-1.36379 -0.177792,-0.0214 -1.539874,-1.02302 -1.816364,-1.09288 -0.19754,-0.0499 -0.556543,-0.26377 -0.774551,-0.43531 z m 10.417892,5.89729 -0.203791,0.21911 -1.826092,0.62986 c 0,0 -1.147239,0.29413 -2.610856,0.41196 -1.463618,0.11782 -2.340433,0.62693 -2.340433,0.62693 0,0 -0.0027,0.0144 -0.0029,0.0158 a 7.8864318,8.1086749 0 0 0 4.378584,1.37547 7.8864318,8.1086749 0 0 0 5.267189,-2.08606 l -0.468865,-0.42072 -0.801788,-0.42995 z" /><path
       id="path12"
       style="fill:#6f005e;fill-opacity:1;stroke-width:0.124512"
       d="m 45.83314,72.957684 c -3.049725,-0.0429 -4.755741,0.96593 -4.347213,0.98977 0.653647,0.0382 2.982474,4.0089 3.334825,5.03592 0.352351,1.02703 -0.727998,4.93365 4.02499,9.13314 3.61846,3.19708 7.764568,2.44784 9.541202,1.90756 l -2.271611,-3.03328 c 0,0 -0.352697,0.42136 -0.792547,0.55763 -0.401568,0.12442 -1.355923,0.37577 -2.054201,0.22203 -0.588952,-0.12967 -1.948918,-0.25145 -2.657548,-0.41512 -0.311713,-0.072 -2.073192,-0.45237 -0.758501,-1.0941 0.508671,-0.24829 1.739807,0.14314 3.499949,0.22495 1.548661,0.072 2.103811,-0.0873 2.103811,-0.0873 l -2.215677,-2.80711 c 0,0 -1.24253,0.46711 -1.580473,0.43555 -0.337943,-0.0316 -2.520634,-0.098 -2.520634,-0.098 l -1.148087,-0.38059 c 0,0 -1.27403,-0.25068 -1.010442,-0.56225 0.263589,-0.31157 2.147828,0.0574 2.147828,0.0574 l 2.467133,0.0294 1.042787,-0.18117 -2.741449,-2.96032 c 0,0 -0.04515,0.38106 -0.467162,0.4803 -0.42202,0.0992 -0.973243,0.34388 -1.21861,0.26677 -0.245368,-0.0771 -1.502167,-0.0999 -1.502167,-0.0999 0,0 -1.42041,-0.0769 -0.922409,-0.67484 0.498001,-0.59793 1.938931,-0.0637 1.938931,-0.0637 l 1.082183,0.0433 0.828781,-0.214 -4.910677,-4.13662 c 0,0 -0.08632,-0.8351 0.419012,-0.6904 0.505329,0.14469 4.283254,3.36522 4.283254,3.36522 0,0 0.445012,-0.21724 0.24878,-1.04425 -0.196231,-0.827 -0.756596,-2.51604 -0.373049,-2.32511 0.383547,0.19094 1.171433,0.97657 1.171433,1.27722 0,0.30065 0.435257,1.67309 0.207195,2.05931 -0.228062,0.38621 -0.496588,0.61234 -0.496588,0.61234 l 2.36767,2.30226 c 0,0 0.596825,-1.71424 0.507045,-2.08752 -0.08978,-0.37328 -0.214492,-1.85698 -0.214492,-1.85698 0,0 0.145944,-1.26896 0.569788,-0.44722 0.423844,0.82174 0.588883,2.25096 0.557871,2.50799 -0.03101,0.25703 -0.507365,2.50303 -0.655146,2.78741 -0.14778,0.28437 1.94647,2.28766 1.94647,2.28766 0,0 0.636142,-0.7268 0.778928,-3.04786 0.142786,-2.32107 0.161074,-2.51879 0.463514,-2.36646 0.30244,0.15234 0.725108,1.63126 0.47227,2.9022 -0.25284,1.27094 -0.735027,3.14445 -0.953294,3.22174 -0.218264,0.0773 1.984407,2.52307 1.984407,2.52307 l 0.658064,-2.58314 c 0,0 0.441573,-2.3655 0.659038,-2.38347 0.217463,-0.018 0.734334,-0.0195 0.654416,0.51385 -0.07992,0.53335 -0.297418,1.89613 -0.297418,1.89613 l -0.377669,1.49195 -0.683113,1.34531 0.982476,1.28671 c 1.045365,-2.14517 3.646939,-9.52197 -6.999411,-14.47036 -2.63092,-1.22285 -4.944628,-1.62723 -6.774463,-1.65295 z" /><path
       id="path13"
       style="fill:#6f005e;fill-opacity:1;stroke-width:0.124512"
       d="m 84.712914,77.146344 c -14.97056,-0.0351 -15.35169,6.98138 -14.9239,9.74086 l 2.3628,-1.18433 0.17996,-1.04546 0.18483,-1.11574 0.66146,-2.42287 c 0,0 0.18249,-0.89711 0.53088,-0.99634 0.34839,-0.0992 0.25519,0.39204 0.28234,0.81614 0.0272,0.42409 -0.0914,0.59461 -0.20987,0.8548 -0.11851,0.26019 -0.38957,1.56378 -0.44187,1.9579 -0.0523,0.39411 -0.0652,1.18286 -0.0652,1.18286 l 0.45889,-0.13424 0.62985,-0.39761 1.65732,-1.34872 0.14811,-0.87401 c 0,0 0.30768,-1.6029 0.43311,-2.29885 0.12543,-0.69594 -0.0914,-0.86277 -0.0503,-1.0868 0.0411,-0.22403 0.60758,-0.15176 0.77115,0.0287 0.16359,0.18045 -0.0306,0.4755 0.0289,0.73637 0.0595,0.26087 -0.17639,0.80605 -0.31639,1.32293 -0.13986,0.51688 -0.14275,1.50023 -0.14275,1.50023 l 0.44844,-0.26824 2.24924,-1.34166 2.21008,-1.48344 c 0,0 1.19489,-0.92141 1.50192,-0.91487 0.30706,0.007 0.32077,0.61108 0.32077,0.74974 0,0.13866 -1.52357,1.30494 -1.52357,1.30494 l -3.62106,2.73002 1.93602,0.25583 c 0,0 1.28894,0.0493 1.6257,0.10798 0.33676,0.0587 0.40493,0.55139 0.30374,0.79717 -0.10118,0.24577 -0.29415,0.0824 -0.45524,0.0824 -0.1611,0 -0.51758,0.007 -0.69114,-0.0204 -0.17356,-0.0276 -1.17466,-0.0331 -1.34993,-0.10117 -0.17529,-0.068 -1.11706,-0.0852 -1.52308,-0.28355 -0.40604,-0.19832 -0.35968,-0.38108 -0.35968,-0.38108 l -1.40197,0.946 c 0,0 -1.57106,0.95852 -1.39371,1.13982 0.17736,0.1813 0.59017,0.0697 0.96424,0.0396 0.37407,-0.0301 1.36599,0.38655 1.74365,0.49391 0.37766,0.10737 0.8347,0.27135 1.3548,0.32879 0.52009,0.0574 0.46436,0.19595 0.44625,0.45962 -0.0181,0.26368 -0.48375,0.23484 -0.78185,0.25389 -0.2981,0.0191 -0.8561,-0.0737 -1.05179,-0.14032 -0.19568,-0.0666 -1.34564,-0.24274 -1.60284,-0.29523 -0.2572,-0.0525 -1.05374,-0.0734 -1.37036,-0.16074 -0.31663,-0.0873 -0.98078,-0.52286 -0.98078,-0.52286 0,0 -1.24424,0.72493 -1.59579,0.85383 -0.32549,0.11935 -1.80542,0.9319 -2.03985,1.06079 8.52667,3.69026 11.2166,-1.30593 12.3843,-2.44598 1.17733,-1.14944 1.81515,-5.30537 1.81515,-5.30537 0,0 1.66489,-3.15457 1.16341,-3.16484 -0.30722,-0.006 -0.60869,-0.01 -0.90442,-0.0105 z" /><path
       id="path14"
       style="fill:#6f005e;fill-opacity:1;stroke-width:0.124512"
       d="m 71.503964,92.023064 c 0,0 -5.73234,6.57717 -6.347664,9.659876 -0.615324,3.08272 2.390526,8.18738 2.390526,8.18738 0,0 0.0813,0.0614 0.2213,0.13084 l 1.01652,-4.32217 c 0,0 -0.99681,-0.90666 -1.48514,-1.48806 -0.48833,-0.5814 -1.423533,-1.55074 -0.74585,-1.73587 0.67768,-0.18513 0.81436,-0.44926 1.50265,1.02552 0.68829,1.47478 1.083878,-0.97542 1.083878,-0.97542 0,0 -1.220618,-1.20299 -1.488058,-1.55518 -0.28322,-0.37298 -0.74033,-1.087086 -0.44065,-1.240986 0.29968,-0.15389 0.64325,0.613416 0.91195,0.835596 0.26848,0.222 1.287428,0.96666 1.287428,0.96666 l 0.83292,-4.619086 c 0,0 0.32434,-1.42582 0.61332,-1.26069 0.54702,0.31259 0.72569,1.20706 0.56249,1.84506 -0.16321,0.63801 -0.45768,3.240966 -0.45768,3.240966 0,0 1.02026,-0.809426 1.31005,-0.836326 0.28978,-0.0269 -1.12123,0.862386 -1.32051,1.497296 -0.23635,0.75303 -0.56273,2.35551 -0.56273,2.35551 l 1.23101,-1.06905 c 0,0 0.56926,-0.72172 0.88204,-0.58851 0.60056,0.25578 -0.35359,1.24828 -0.35359,1.24828 l -1.19211,1.42726 -1.03476,0.73127 -0.74755,4.66092 c 0.2172,-0.045 0.45269,-0.11893 0.70767,-0.23711 1.46962,-0.68117 5.78413,-6.81405 4.77303,-10.408886 -0.50803,-1.80622 -3.15049,-7.47509 -3.15049,-7.47509 z" /><path
       id="path15"
       style="fill:#6f005e;fill-opacity:1;stroke-width:0.124512"
       d="m 107.06594,80.741134 c -0.0454,-0.003 -0.0945,0.002 -0.14737,0.0136 -16.749566,3.75567 -20.504436,6.38015 -23.725566,11.342 -2.76675,4.26192 -1.61797,8.601866 -1.23759,9.747666 0.20117,-0.11104 1.32475,-0.7418 1.4691,-1.08387 0.15802,-0.37445 -0.16956,-1.944496 0.0944,-2.967866 0.26392,-1.02338 0.57684,-2.87764 0.57684,-2.87764 0,0 -0.16234,-0.59518 0.20136,-0.61963 0.36369,-0.0245 0.39128,1.44477 0.39128,1.44477 l -0.5175,2.88882 c 0,0 -0.15266,1.390156 0.17169,1.430416 0.32436,0.0403 2.39612,-1.476626 2.39612,-1.476626 l 0.57003,-3.98365 1.00947,-4.74093 0.39956,-1.50411 c 0,0 0.36471,-0.3789 0.42144,-0.12621 0.0567,0.25268 0.0489,2.00264 0.0489,2.00264 l -0.52115,2.38178 -0.70305,5.02303 3.38419,-2.32803 c 0,0 0.37076,-3.82496 0.61964,-4.63223 0.24888,-0.80727 1.16925,-3.83676 1.16925,-3.83676 l 0.30641,-1.18116 c 0,0 0.17018,-0.44468 0.39299,-0.34728 0.22281,0.0974 0.4299,0.90503 0.32295,1.29498 -0.10694,0.38995 -1.36987,4.63539 -1.36987,4.63539 l -0.63958,3.05418 4.07679,-2.90973 c 0,0 0.66278,-4.86832 1.33704,-6.34183 0.67425,-1.47352 0.83121,-0.10214 0.83121,-0.10214 l -1.29303,5.42818 c 0,0 1.92119,-1.10495 3.719306,-2.9039 1.79812,-1.79896 3.6658,-3.53959 3.6658,-3.53959 0,0 -0.0908,-0.24133 0.26021,-0.22738 0.35098,0.014 0.43872,0.8285 0.0868,1.25947 -0.3519,0.43096 -3.26357,3.15049 -3.26357,3.15049 l -2.685756,2.41411 -0.69308,0.69698 c 0,0 0.45781,0.34433 1.50387,0.19139 1.046046,-0.15296 3.264056,-0.37816 3.264056,-0.37816 l 0.49367,-0.003 c 0,0 1.48308,-0.22784 0.34362,0.45306 -1.13947,0.68089 -3.39489,0.6194 -3.39489,0.6194 l -2.330706,0.0161 -1.06929,-0.0659 -3.07364,2.80614 c 0,0 6.913166,0.0172 7.283446,-0.09 0.37028,-0.10718 0.61932,0.92491 -0.21182,0.94867 -0.83114,0.0238 -3.399506,0.32612 -3.399506,0.32612 0,0 -2.69014,0.0271 -3.15414,-0.0165 -0.46399,-0.0437 -1.93066,-0.29085 -1.93066,-0.29085 l -3.45666,2.64223 c 0,0 2.21716,0.55777 2.60818,0.59532 0.39102,0.0375 4.32946,-0.0885 4.32946,-0.0885 0,0 1.5134,-0.17316 1.55786,0.0815 0.0445,0.25463 -0.64092,0.69615 -1.19478,0.75801 -0.55385,0.0619 -3.05346,0.0562 -3.05346,0.0562 l -2.62642,-0.0586 c 0,0 -1.15565,0.09 -2.47054,-0.60943 -1.17814,-0.62671 -4.49397,2.747856 -5.2025,3.488036 8.67189,3.72638 17.017276,-3.219806 18.585086,-4.889276 1.62457,-1.72993 4.79419,-10.12364 4.79419,-10.12364 0,0 2.08861,-6.7683 0.67995,-6.8462 z M 82.030564,102.06523 c 0.009,0.0245 0.0333,0.0907 0.0333,0.0907 0.0247,0.0128 0.0493,0.0229 0.0739,0.0355 z" /><path
       style="fill:#6f005e;fill-opacity:1;stroke-width:0.124512"
       d="m 37.3414,102.29029 c 0,0 4.202699,-0.18202 4.628768,0.11371 0.42607,0.29573 1.359431,-0.58335 1.700848,-0.72023 0.341417,-0.13688 0.771986,-6.765456 1.224373,-6.765456 0.452388,0 -1.150464,-0.79551 -1.333991,-0.76651 -0.183528,0.029 -1.091275,6.138876 -0.844489,6.335026 0.246785,0.19617 -2.732682,-3.660086 -2.732682,-3.660086 0,0 -0.474332,-0.7478 -0.894143,-0.76935 -0.419813,-0.0215 -0.22859,0.9852 -0.22859,0.9852 0,0 0.905857,1.68862 1.06557,1.84441 0.159711,0.1558 1.315382,1.796256 1.315382,1.796256 0,0 0.602847,0.38961 0.467655,0.50971 -0.135192,0.12011 -0.68895,0.0815 -0.806836,0.0603 -0.117885,-0.0213 -2.303888,-0.13648 -2.303888,-0.13648 l -1.783859,0.1604 z"
       id="path17" /><path
       style="fill:#6f005e;fill-opacity:1;stroke-width:0.124512"
       d="m 71.714654,73.078844 c 0,0 -2.05142,-0.24374 -1.16427,-2.13865 0.88715,-1.8949 1.86737,-1.54348 1.86737,-1.54348 0,0 0.77287,1.72227 0.49799,2.14146 -0.27489,0.41918 -0.61154,1.67281 -0.9556,1.63296 -0.34406,-0.0399 -0.24549,-0.0923 -0.24549,-0.0923 z"
       id="path18" /><path
       style="fill:#6f005e;fill-opacity:1;stroke-width:0.124512"
       d="m 59.867497,118.53989 c -0.523853,0.30882 -3.040948,-1.58388 -3.040948,-1.58388 l -1.67818,-1.61069 c 0,0 -0.876472,-1.88961 0.439619,-0.91819 1.316091,0.97141 3.079411,2.56341 3.079411,2.56341 0,0 1.660834,1.0523 1.200098,1.54935 z"
       id="path19" /><path
       style="fill:#6f005e;fill-opacity:1;stroke-width:0.124512"
       d="m 72.883534,74.463144 c 0.27187,-0.43996 1.58493,-2.38467 2.78193,-1.95479 1.19702,0.42988 1.39771,0.0182 1.13608,1.12599 -0.26162,1.10782 -1.06272,2.29771 -1.89332,2.21016 -0.8306,-0.0876 -2.18663,-0.58106 -2.18663,-0.58106 0,0 -3.77454,-0.0116 -8.236252,12.69483 -2.375445,6.765 0.797688,2.06192 0.797688,2.06192 l 4.078064,-2.36529 c 0,0 0.47128,-0.45999 0.47128,0.0925 0,0.5525 -2.848088,2.44408 -2.848088,2.44408 l -2.515765,1.84834 c 0,0 -1.782169,2.4148 -2.337692,7.17465 -0.162075,1.388706 -0.813993,8.005246 3.208583,17.706456 0.538511,1.29872 0.766664,1.50099 0.220288,1.50099 -0.546379,0 -1.448582,-0.49842 -1.927487,-1.99182 -0.478906,-1.49341 -2.238397,-7.0871 -2.26262,-7.8939 -0.02422,-0.80681 -0.306247,-5.24225 -0.306247,-5.24225 -1.370512,-1.59145 -2.715089,-1.98477 -4.116519,-5.004536 0,0 -3.659983,0.3043 -4.349853,-3.86329 -0.68987,-4.16759 5.209034,0.0457 5.54436,3.11399 0.204055,1.86714 2.862732,3.676766 2.862732,3.676766 l 0.517187,-7.054796 c 0,0 -2.424255,-3.24295 -1.92365,-3.55289 1.201261,-0.74373 0.996663,-0.0493 1.326551,0.60494 0.329889,0.65422 0.847754,1.48757 0.847754,1.48757 0,0 2.852718,-9.53802 4.790888,-12.51269 0.37612,-0.57726 -0.726734,-3.50204 -0.726734,-3.50204 0,0 -3.758041,-1.14557 -2.785305,-4.51157 0.972736,-3.366 4.517349,2.51684 3.993209,3.5909 -0.38541,0.78977 0.42303,3.24783 0.42303,3.24783 0,0 2.676928,-4.5202 5.416538,-4.55101 z"
       id="path20"
       sodipodi:nodetypes="cssscsccsccsssssccssccsscscsscc" /><path
       style="fill:#6f005e;fill-opacity:1;stroke-width:0.124512"
       d="m 66.457046,117.66565 c 0,0 -0.16673,0.49488 0.35029,0.5662 0.51702,0.0713 1.21012,-0.0353 1.2532,-0.68087 0.0431,-0.64552 0.69688,-1.78303 1.170698,-2.12813 0.47382,-0.34509 0.80856,-0.91792 1.24604,-0.95637 0.43748,-0.0385 2.07297,-0.26363 2.46721,-0.28161 0.39424,-0.018 1.34388,-0.0434 1.28175,-0.35868 -0.0621,-0.31523 -1.17334,-0.66871 -1.56385,-0.60602 -0.39051,0.0627 -2.74104,0.60315 -2.74104,0.60315 0,0 1.77786,-3.30359 3.19113,-4.45837 1.41328,-1.15479 2.74008,-2.53931 3.11397,-2.73092 0.37389,-0.19162 3.18124,-2.23123 3.18124,-2.23123 l 1.36062,-0.8251 0.61361,-0.34872 c 0,0 1.70868,-1.38438 0.32472,-1.07173 -1.38396,0.31266 -2.5838,1.04105 -2.5838,1.04105 l -2.95791,2.01237 c 0,0 -5.51479,4.9565 -6.16492,5.76056 -0.65014,0.80406 -3.542958,6.69442 -3.542958,6.69442 z"
       id="path21" /><path
       style="fill:#6f005e;fill-opacity:1;stroke-width:0.124512"
       d="m 86.299064,118.1671 c 0.23459,0.35235 0.9362,0.57302 1.36117,0.37015 0.42498,-0.20287 2.53865,-1.08769 2.53865,-1.08769 l 2.30448,-1.0195 c 0,0 1.06592,-1.1449 1.71358,-1.34366 0.64765,-0.19876 1.92327,-0.37493 2.24998,-0.37349 0.32672,0.001 1.7451,0.0186 1.7451,0.0186 l 2.485266,-0.12057 -0.726286,-0.91927 c 0,0 -1.66617,0.14963 -2.03441,0.13131 -0.36824,-0.0183 -2.20145,0.12956 -2.20145,0.12956 0,0 1.4224,-1.66882 1.50508,-1.8338 0.0827,-0.16499 1.59885,-2.10672 1.79662,-2.38821 0.19777,-0.28148 0.89006,-1.34032 1.016126,-1.47818 0.12608,-0.13786 -0.506646,-0.16548 -0.798766,-0.26714 -0.29211,-0.10167 -1.01238,1.11457 -1.01238,1.11457 l -1.26791,1.51625 -1.06845,1.3315 -0.3623,0.21225 c 0,0 -0.10584,-1.0192 -0.11838,-1.49181 -0.0126,-0.47261 -0.54434,-2.64981 -0.54434,-2.64981 l -1.03998,0.087 c 0,0 0.0936,1.01187 0.17814,1.13797 0.0846,0.1261 0.93426,3.46958 0.7283,3.55398 -0.20597,0.0844 -1.46089,1.66918 -1.66416,1.66918 -0.20327,0 -1.59218,1.13563 -2.0034,1.20796 -0.41122,0.0723 -2.10338,1.02563 -2.10338,1.02563 l -1.49191,0.63353 z"
       id="path22" /><path
       style="fill:#6f005e;fill-opacity:1;stroke-width:0.124512"
       d="m 73.430874,113.24821 c 0,0 4.35982,-0.13647 4.51035,-0.0753 0.15053,0.0611 0.97314,0.95875 1.18814,1.01898 0.21501,0.0602 1.50353,0.71327 1.50353,0.71327 0,0 1.18002,0.44168 1.41321,0.45633 0.2332,0.0146 0.64334,-0.31186 0.46629,-0.41398 -0.17706,-0.10212 -0.91648,-0.48159 -0.91648,-0.48159 l -2.50555,-1.34074 c 0,0 1.28703,-0.35899 1.82017,-0.35393 0.53313,0.005 2.6838,0.0929 2.99773,0.0363 0.31394,-0.0566 1.20062,-0.23571 1.59919,-0.24204 0.39858,-0.006 1.26608,-0.14986 1.30011,-0.2949 0.034,-0.14503 0.0268,-0.30774 -0.11158,-0.55278 -0.13836,-0.24504 -0.5768,-0.34466 -0.97915,-0.28706 -0.40235,0.0576 -1.54147,0.0768 -1.54147,0.0768 l -2.18032,0.0522 -2.1569,0.0393 c 0,0 -0.22135,-0.39226 0.20634,-0.55614 0.42768,-0.16388 0.64539,-0.25849 0.85409,-0.657 0.2087,-0.39851 0.4199,-0.71761 0.18948,-0.82915 -0.23043,-0.11153 -0.62461,-0.27217 -0.7968,-0.0745 -0.17219,0.19764 -1.47306,1.0717 -1.47306,1.0717 l -0.88154,0.7782 -0.56709,0.61553 -1.59743,0.18615 -0.59614,0.088 -1.34775,0.0134 c 0,0 1.5457,-2.39123 3.34382,-3.22948 1.79811,-0.83826 3.46749,-1.11979 3.79687,-1.11025 0.32939,0.01 2.74216,0.19825 3.24835,0.35192 0.50618,0.15366 2.64457,1.21785 2.64457,1.21785 l 2.57216,1.49168 0.62739,0.54103 c 0,0 -1.23485,1.48879 -1.71967,1.90175 -0.48482,0.41297 -2.81106,2.18387 -2.99706,2.18387 -0.18599,0 -2.47989,1.17809 -4.04863,1.10704 -1.56874,-0.0711 -4.8103,-0.83684 -5.843,-1.41424 -1.0327,-0.5774 -2.34007,-1.19854 -2.34007,-1.19854 0,0 -2.97805,0.31764 -3.83395,1.32291 -0.855898,1.00526 -1.313018,1.89612 -1.313018,1.89612 l -0.19321,0.82152 c 0,0 -0.23638,0.27111 -0.36093,0.25097 -0.12455,-0.0202 -0.88278,-0.25132 -0.88278,-0.25132 l -0.008,-0.72924 0.61749,-1.5689 1.19292,-1.65513 1.525188,-2.72139 c 0,0 3.43206,-3.81663 4.1429,-4.47271 0.71083,-0.65608 4.23797,-3.18263 4.23797,-3.18263 l 2.54761,-1.45068 c 0,0 0.76142,-0.33207 0.91314,-0.24535 0.15173,0.0867 0.20187,0.79535 -0.0944,0.94517 -0.29623,0.14983 -4.23597,2.72364 -4.23597,2.72364 l -2.62157,2.11879 -2.27699,2.19458 -1.86547,2.51079 -0.6461,1.36294 z"
       id="path28" /><path
       style="fill:#6f005e;fill-opacity:1;stroke-width:0.442488"
       d="m 44.512552,192.3783 0.462638,-28.36058 15.448337,-0.40586 -1.088237,3.87243 -11.935716,1.51235 0.247266,4.40355 7.050512,-2.17117 -0.790972,6.07279 -5.115996,1.58163 0.08706,13.82832 z"
       id="path38"
       sodipodi:nodetypes="ccccccccccc" /><path
       style="fill:#6f005e;fill-opacity:1;stroke-width:0.442488"
       d="m 61.50327,163.49568 -1.279757,28.91774 10.786691,-0.12396 -0.0148,-3.98652 -6.623649,0.0588 -0.100981,-25.06272 z"
       id="path39"
       sodipodi:nodetypes="ccccccc" /><path
       id="path40"
       style="fill:#6f005e;fill-opacity:1;stroke-width:0.442488"
       d="m 82.577504,162.53799 -9.25215,1.20148 0.58291,27.99002 9.15344,0.22996 z m -2.48047,3.62717 0.50798,19.61689 -4.16822,0.16123 0.39635,-19.33473 z" /><path
       id="path41"
       style="fill:#6f005e;fill-opacity:1;stroke-width:0.442488"
       d="m 85.129687,162.67793 0.276469,29.8545 3.370854,0.77515 -0.91674,-12.39924 5.609477,11.08459 3.131075,0.0563 -6.409945,-14.27303 5.618779,-2.94659 0.0987,-11.33058 z m 2.724899,2.82308 5.012097,0.55087 -0.543636,6.7908 -4.361491,2.80965 z" /><path
       id="path42"
       style="fill:#6f005e;fill-opacity:1;stroke-width:0.381705"
       d="m 52.072386,195.67654 -0.356568,13.90303 -7.613488,-0.81184 -0.217558,14.48904 7.240902,-0.69247 3.857645,0.004 -0.527616,-26.39012 z m -1.088306,17.06149 0.355534,6.13348 -3.297473,0.22324 -0.515214,-5.86114 z" /><path
       id="path43"
       style="fill:#6f005e;fill-opacity:1;stroke-width:0.381705"
       d="m 61.475429,207.22054 c -3.889456,-0.0488 -5.671488,5.84357 -5.671488,5.84357 l 0.855762,9.15861 8.580355,-1.03146 0.328662,-4.48551 -1.860352,0.51883 -0.403076,1.92598 -4.151685,0.36432 -0.254764,-3.63492 c 3.040941,-0.9421 3.707002,-1.32935 6.122623,-2.29237 0,0 2.097573,-4.98179 -2.511474,-6.21926 -0.360083,-0.0967 -0.704948,-0.14366 -1.034563,-0.14779 z m 0.557589,2.90266 c 0.14842,-0.003 0.219625,0.006 0.219625,0.006 l 0.418579,1.63195 -3.36827,0.73484 c 0,0 0.196227,-1.87579 1.3193,-2.15491 0.70192,-0.17444 1.1634,-0.21325 1.410766,-0.21808 z" /><path
       style="fill:#6f005e;fill-opacity:1;stroke-width:0.442488"
       d="m 67.765101,200.87377 0.08142,4.69773 7.998313,-0.0178 -0.1361,16.92876 3.55056,-0.27883 0.298,-16.4599 5.44102,-0.0526 -0.86607,-6.06842 z"
       id="path44"
       sodipodi:nodetypes="ccccccccc" /><path
       style="fill:#6f005e;fill-opacity:1;stroke-width:0.411381"
       d="m 88.042144,201.09181 -1.46342,21.13702 10.59378,0.17352 -0.18148,-3.90278 -6.76439,-0.0465 0.47686,-7.24935 5.1066,-0.0626 0.33344,-2.60585 -5.36852,-0.18736 0.263,-3.06475 5.92012,-0.63101 0.56487,-3.23396 z"
       id="path45"
       sodipodi:nodetypes="ccccccccccccc" /><path
       style="fill:#6f005e;fill-opacity:1;stroke-width:0.495789"
       d="m 91.167654,198.90851 3.51781,-3.48255 1.92642,1.00318 -3.59899,3.41503 z"
       id="path50"
       sodipodi:nodetypes="ccccc" /><path
       style="fill:#cd0038;fill-opacity:1;stroke-width:0.181059"
       d="m 45.388676,228.78451 52.277148,-0.40406 0.30601,2.16857 -53.195458,0.62164 z"
       id="path51" /><path
       style="fill:#cd0038;fill-opacity:1;stroke-width:0.109524"
       d="m 46.258942,232.63446 52.277152,-0.14785 0.306,0.79351 -53.195452,0.22746 z"
       id="path51-9" /></g></svg>
