<?xml version="1.0" encoding="UTF-8" standalone="no"?>
<!-- Created with Inkscape (http://www.inkscape.org/) -->

<svg
   width="77.772377mm"
   height="47.951408mm"
   viewBox="0 0 77.772377 47.951408"
   version="1.1"
   id="svg1"
   xml:space="preserve"
   inkscape:export-filename="bitmap.svg"
   inkscape:export-xdpi="96"
   inkscape:export-ydpi="96"
   xmlns:inkscape="http://www.inkscape.org/namespaces/inkscape"
   xmlns:sodipodi="http://sodipodi.sourceforge.net/DTD/sodipodi-0.dtd"
   xmlns="http://www.w3.org/2000/svg"
   xmlns:svg="http://www.w3.org/2000/svg"><sodipodi:namedview
     id="namedview1"
     pagecolor="#ffffff"
     bordercolor="#000000"
     borderopacity="0.25"
     inkscape:showpageshadow="2"
     inkscape:pageopacity="0.0"
     inkscape:pagecheckerboard="0"
     inkscape:deskcolor="#d1d1d1"
     inkscape:document-units="mm"
     showguides="true"><sodipodi:guide
       position="-123.1678,254.31864"
       orientation="1,0"
       id="guide52"
       inkscape:locked="false" /></sodipodi:namedview><defs
     id="defs1"><linearGradient
       id="swatch51"
       inkscape:swatch="solid"><stop
         style="stop-color:#cd0038;stop-opacity:1;"
         offset="0"
         id="stop51" /></linearGradient></defs><g
     inkscape:label="Capa 1"
     inkscape:groupmode="layer"
     id="layer1"
     transform="translate(-92.8435,-31.518912)"><path
       id="path2-3"
       style="fill:#cd0038;fill-opacity:1;stroke-width:0.0676148"
       d="m 126.21295,59.272602 -6.16442,0.0317 0.0457,2.28424 2.01985,1.39601 c 0,0 0.18914,2.35523 0.0967,2.51653 -0.0925,0.16131 -2.39901,2.59193 -2.55193,2.60251 -0.15291,0.0106 -2.31039,-2.52657 -2.31039,-2.52657 0,0 -0.0122,-2.60619 0.12692,-2.66391 0.13911,-0.0577 1.85623,-1.27029 1.85623,-1.27029 l -0.0161,-2.33482 -19.376247,0.0996 c -0.498482,7.85403 5.960107,12.24495 8.549967,12.5177 0.36247,0.0382 0.15517,1.08237 0.15517,1.08237 l 9.38933,-0.002 0.10644,-0.9577 c 8.88763,-4.16768 8.07283,-12.77562 8.07283,-12.77562 z m -24.10121,2.6136 c 0.071,-5.5e-4 0.12954,0.0527 0.15134,0.2241 0.0537,0.42183 -0.1145,0.55941 -0.1145,0.55941 -0.30056,0.0498 -0.48761,-0.58718 -0.35167,-0.63732 0.0807,-0.0298 0.21108,-0.1454 0.31483,-0.14619 z m 17.52925,0.66479 -0.11965,0.0127 -1.39601,0.83872 -0.0227,1.95488 1.49888,1.73474 1.73118,-1.5723 -0.0239,-2.1712 z m -17.26117,0.98081 c 0.25407,0 0.6356,0.91742 0.6356,0.91742 l 0.97065,1.68535 c 0,0 0.55117,0.36609 0.55148,0.64709 3.3e-4,0.28101 -0.22631,0.59868 -0.44887,0.4152 -0.22257,-0.18348 -0.6125,-0.88282 -0.6125,-0.88282 l -0.70137,-1.16015 -0.41348,-0.98134 c 0,0 -0.23558,-0.64075 0.0185,-0.64075 z m 2.70208,4.0796 0.56601,0.25976 c 0,0 0.53139,0.47125 0.60642,0.61738 0.075,0.14614 -0.21566,0.24791 -0.32223,0.26623 -0.10657,0.0183 -0.50149,-0.3461 -0.64564,-0.42563 -0.14414,-0.0795 -0.38563,-0.46264 -0.48215,-0.53577 z"
       inkscape:export-filename="LOGO svg.svg"
       inkscape:export-xdpi="96"
       inkscape:export-ydpi="96" /><path
       style="fill:#cd0038;fill-opacity:1;stroke-width:0.0676148"
       d="m 95.938716,73.844322 34.992994,0.11423 c 0,0 -3.58255,3.10809 -10.20182,3.57543 -0.19607,0.0139 -0.10109,0.78074 -0.10109,0.78074 l -13.95657,-0.035 -0.17601,-0.91641 c 0,0 -7.029109,-0.22256 -10.557504,-3.51902 z"
       id="path3-3"
       sodipodi:nodetypes="ccscccc" /><path
       style="fill:#cd0038;fill-opacity:1;stroke-width:0.0676148"
       d="m 126.98328,60.184022 -0.12532,1.3912 c 0,0 2.70648,-1.81677 3.84269,0.10491 1.13621,1.92168 -0.0849,4.24061 -1.33361,4.93151 -1.24874,0.69092 -5.43133,2.20731 -5.43133,2.20731 l -2.18393,2.01172 2.43709,-0.5325 c 0,0 -0.41983,1.8603 1.28485,1.20776 0.84561,-0.32369 -0.0243,-1.69215 -0.0243,-1.69215 0,0 4.78287,-1.67086 5.85004,-3.0822 1.06718,-1.41134 1.60512,-4.12949 0.9546,-5.35397 -0.65053,-1.22447 -2.93764,-3.05968 -5.2708,-1.19359 z"
       id="path4-8"
       sodipodi:nodetypes="ccsscccscssc" /><ellipse
       style="fill:#6f005e;fill-opacity:1;stroke-width:0.0676148"
       id="path5-9"
       cx="126.78059"
       cy="52.275745"
       rx="0.72564584"
       ry="0.74845278" /><ellipse
       style="fill:#6f005e;fill-opacity:1;stroke-width:0.0676148"
       id="path6-1"
       cx="129.83891"
       cy="52.365788"
       rx="0.73633307"
       ry="0.73345417" /><ellipse
       style="fill:#6f005e;fill-opacity:1;stroke-width:0.0676148"
       id="path7-7"
       cx="130.57344"
       cy="55.872272"
       rx="0.73523635"
       ry="0.69501185" /><ellipse
       style="fill:#6f005e;fill-opacity:1;stroke-width:0.0676148"
       id="path8-3"
       cx="95.02713"
       cy="49.136784"
       rx="1.1040854"
       ry="1.0160624" /><ellipse
       style="fill:#6f005e;fill-opacity:1;stroke-width:0.0676148"
       id="path9-7"
       cx="100.22864"
       cy="44.631275"
       rx="1.1050972"
       ry="1.0429149" /><path
       id="path10-8"
       style="fill:#6f005e;fill-opacity:1;stroke-width:0.0676148"
       d="m 95.312761,41.717472 a 2.4693326,2.1404086 0 0 0 -1.35348,0.35181 c 0.190237,0.11522 0.735307,0.73016 0.735307,0.73016 l 0.990844,1.40947 0.186865,0.33082 0.198226,-0.43831 0.05956,-1.50892 0.0067,-0.20852 c 0,0 0.110155,-0.16261 0.190297,-0.17115 0.08014,-0.009 0.162836,0.15945 0.182244,0.27072 0.01939,0.11127 0.09574,0.9639 0.09574,0.9639 l -0.146588,1.37145 0.0058,0.39182 0.326187,0.35525 a 2.4693326,2.1404086 0 0 0 0.991637,-1.70807 2.4693326,2.1404086 0 0 0 -2.469387,-2.14043 z m -1.424135,0.39763 a 2.4693326,2.1404086 0 0 0 -1.045122,1.7428 2.4693326,2.1404086 0 0 0 0.02444,0.29661 c 0.02601,-0.036 0.04676,-0.0638 0.04676,-0.0638 0,0 0.361093,0.0523 0.491792,0.0986 0.130693,0.0464 0.960733,0.35432 0.960733,0.35432 l 0.619363,0.17735 0.461816,0.0806 -0.51398,-0.73412 -0.677599,-1.01251 c 0,0 -0.199675,-0.39426 -0.199675,-0.52982 0,-0.10988 -0.148874,-0.30158 -0.16851,-0.41005 z m -0.830393,2.61268 a 2.4693326,2.1404086 0 0 0 2.254528,1.27055 2.4693326,2.1404086 0 0 0 0.837263,-0.13246 l -0.491532,-0.72567 c 0,0 -0.305101,0.10346 -0.518727,0.053 -0.213631,-0.0505 -0.621866,-0.0794 -0.73901,-0.10565 -0.117145,-0.0263 -0.671897,-0.18777 -0.764626,-0.23982 -0.05061,-0.0284 -0.327132,-0.0728 -0.577896,-0.11991 z" /><path
       id="path11-7"
       style="fill:#6f005e;fill-opacity:1;stroke-width:0.069888"
       d="m 102.01732,48.364312 a 4.2826378,4.4033244 0 0 0 -2.558665,0.88626 h 0.07871 l 0.240083,0.3213 0.515032,0.58264 0.45231,0.62016 0.53669,0.61038 0.81283,0.8127 0.0778,-0.51226 c 0,0 -0.0101,-0.98614 -0.0101,-1.0924 0,-0.10626 -0.096,-0.44663 -0.096,-0.44663 l -0.13299,-0.64683 c 0,0 -0.10092,-0.4666 -0.15372,-0.6125 -0.0528,-0.14587 0.13392,-0.14259 0.34363,-0.15912 0.2097,-0.0166 0.28683,0.39036 0.28683,0.39036 l 0.0862,0.45627 0.0267,0.55874 0.0865,0.72145 c 0,0 0.0337,0.9126 0.0306,1.20677 -0.003,0.29417 -0.0956,0.56785 -0.0956,0.56785 l 1.13743,1.28944 0.0704,-0.16231 0.14791,-0.55385 0.0762,-1.38571 0.0312,-1.18616 0.0459,-0.88665 c 0,0 0.0448,-0.4888 0.33438,-0.45165 0.28961,0.0371 0.21763,0.39195 0.21763,0.39195 l -0.0445,0.82155 -0.0206,1.01409 -0.059,1.26527 c 0,0 0.0596,1.00919 0.0201,1.19012 -0.0395,0.18093 -0.0919,0.32437 -0.0837,0.54409 0.008,0.21971 0.18226,0.26911 0.27033,0.32368 0.0881,0.0546 0.66228,0.62702 0.66228,0.62702 l 0.0177,0.0247 a 4.2826378,4.4033244 0 0 0 0.93221,-2.72743 4.2826378,4.4033244 0 0 0 -4.28257,-4.40328 z m -3.196648,1.47867 a 4.2826378,4.4033244 0 0 0 -0.996922,2.0826 l 1.053045,0.35774 0.567334,0.29436 0.51807,0.41731 0.407801,0.36595 0.26121,0.13813 0.53524,0.3044 0.81177,0.38785 1.01238,0.47423 c 0,0 0.43948,0.14527 0.59176,0.14527 0.15227,0 0.0814,-0.0457 0.0814,-0.0457 l -0.48545,-0.52574 -0.45165,-0.46537 -0.44689,-0.54897 -0.85575,-0.77533 -0.8675,-0.90012 -0.557819,-0.71695 -0.396315,-0.40701 -0.292248,-0.28327 z m -1.045784,2.34486 a 4.2826378,4.4033244 0 0 0 -0.04029,0.57975 4.2826378,4.4033244 0 0 0 1.385308,3.23243 c 0.01906,-0.0142 0.04067,-0.0303 0.05851,-0.0437 0.243787,-0.18346 0.352867,-0.2307 0.648676,-0.31233 0.295808,-0.0816 0.812228,-0.0605 0.896688,-0.0468 0.0845,0.0137 0.57645,-0.12083 0.66849,-0.12771 0.092,-0.007 0.6753,-0.0767 0.7674,-0.0889 0.0921,-0.0121 0.86274,-0.0634 0.86274,-0.0634 0,0 -0.37866,-0.25577 -0.69344,-0.39777 -0.31478,-0.14199 -0.79368,-0.39354 -0.79368,-0.39354 l -0.78114,-0.37518 c 0,0 -0.66457,-0.37748 -0.74799,-0.39248 -0.08339,-0.015 -0.727765,-0.72896 -0.824312,-0.74059 -0.09655,-0.0116 -0.836214,-0.55554 -0.986359,-0.59348 -0.107272,-0.0271 -0.302223,-0.14324 -0.42061,-0.23639 z m 5.657312,3.20246 -0.11066,0.11898 -0.99164,0.34204 c 0,0 -0.62299,0.15973 -1.4178,0.22371 -0.79479,0.064 -1.27094,0.34045 -1.27094,0.34045 0,0 -0.0016,0.008 -0.0016,0.009 a 4.2826378,4.4033244 0 0 0 2.37774,0.74693 4.2826378,4.4033244 0 0 0 2.86029,-1.13281 l -0.25461,-0.22847 -0.43541,-0.23348 z" /><path
       id="path12-8"
       style="fill:#6f005e;fill-opacity:1;stroke-width:0.0676148"
       d="m 100.59173,33.466622 c -1.656119,-0.0233 -2.582554,0.52454 -2.360706,0.53749 0.354957,0.0207 1.619597,2.17699 1.810936,2.7347 0.19134,0.55771 -0.395326,2.67916 2.18573,4.95965 1.96496,1.73613 4.21646,1.32927 5.18124,1.03588 l -1.23358,-1.64719 c 0,0 -0.19152,0.22881 -0.43038,0.30281 -0.21806,0.0676 -0.73632,0.20406 -1.11551,0.12057 -0.31982,-0.0704 -1.05833,-0.13654 -1.44315,-0.22542 -0.16927,-0.0391 -1.12582,-0.24566 -0.41189,-0.59414 0.27622,-0.13483 0.94478,0.0777 1.90061,0.12215 0.84098,0.0391 1.14245,-0.0474 1.14245,-0.0474 l -1.2032,-1.52437 c 0,0 -0.67475,0.25366 -0.85826,0.23652 -0.18352,-0.0172 -1.36881,-0.0532 -1.36881,-0.0532 l -0.62345,-0.20667 c 0,0 -0.69185,-0.13613 -0.54871,-0.30533 0.14314,-0.16919 1.16635,0.0312 1.16635,0.0312 l 1.33976,0.016 0.56627,-0.0984 -1.48872,-1.60757 c 0,0 -0.0246,0.20693 -0.25368,0.26082 -0.22918,0.0539 -0.52851,0.18674 -0.66176,0.14486 -0.13324,-0.0419 -0.81573,-0.0542 -0.81573,-0.0542 0,0 -0.77134,-0.0418 -0.5009,-0.36647 0.27043,-0.3247 1.05291,-0.0346 1.05291,-0.0346 l 0.58767,0.0235 0.45006,-0.11621 -2.666691,-2.24634 c 0,0 -0.04686,-0.45349 0.227541,-0.37492 0.27441,0.0786 2.32597,1.82745 2.32597,1.82745 0,0 0.24166,-0.11797 0.1351,-0.56707 -0.10656,-0.44909 -0.41086,-1.36631 -0.20258,-1.26262 0.20828,0.10368 0.63613,0.53031 0.63613,0.69358 0,0.16326 0.23636,0.90855 0.11252,1.11828 -0.12385,0.20973 -0.26967,0.33252 -0.26967,0.33252 l 1.28574,1.25022 c 0,0 0.3241,-0.9309 0.27535,-1.1336 -0.0488,-0.20271 -0.11649,-1.00841 -0.11649,-1.00841 0,0 0.0793,-0.6891 0.30942,-0.24286 0.23017,0.44623 0.31979,1.22236 0.30295,1.36193 -0.0168,0.13958 -0.27552,1.35925 -0.35577,1.51367 -0.0803,0.15443 1.05701,1.24229 1.05701,1.24229 0,0 0.34545,-0.39468 0.42298,-1.6551 0.0775,-1.26043 0.0875,-1.3678 0.25171,-1.28508 0.16424,0.0827 0.39377,0.88583 0.25646,1.576 -0.1373,0.69017 -0.39915,1.70756 -0.51768,1.74953 -0.11852,0.042 1.07762,1.37013 1.07762,1.37013 l 0.35735,-1.40275 c 0,0 0.23979,-1.28455 0.35788,-1.29431 0.1181,-0.01 0.39878,-0.0106 0.35538,0.27904 -0.0434,0.28963 -0.16151,1.02967 -0.16151,1.02967 l -0.20509,0.81019 -0.37096,0.73055 0.53353,0.69873 c 0.56767,-1.16491 1.98042,-5.17079 -3.80096,-7.85796 -1.42869,-0.66406 -2.68512,-0.88365 -3.67879,-0.89762 z" /><path
       id="path13-0"
       style="fill:#6f005e;fill-opacity:1;stroke-width:0.0676148"
       d="m 121.70495,35.741232 c -8.12959,-0.0191 -8.33656,3.79116 -8.10425,5.28966 l 1.28309,-0.64313 0.0977,-0.56773 0.10037,-0.60589 0.3592,-1.31571 c 0,0 0.0991,-0.48717 0.28829,-0.54105 0.18919,-0.0539 0.13857,0.21289 0.15332,0.44319 0.0148,0.2303 -0.0496,0.3229 -0.11397,0.46419 -0.0644,0.1413 -0.21155,0.8492 -0.23995,1.06322 -0.0284,0.21402 -0.0354,0.64234 -0.0354,0.64234 l 0.24919,-0.0729 0.34204,-0.21592 0.89998,-0.73241 0.0804,-0.47462 c 0,0 0.16709,-0.87043 0.2352,-1.24836 0.0681,-0.37792 -0.0496,-0.46852 -0.0273,-0.59018 0.0223,-0.12165 0.32994,-0.0824 0.41876,0.0156 0.0888,0.098 -0.0166,0.25821 0.0157,0.39988 0.0323,0.14166 -0.0958,0.43771 -0.17181,0.7184 -0.0759,0.28069 -0.0775,0.81468 -0.0775,0.81468 l 0.24352,-0.14566 1.22143,-0.72858 1.20016,-0.80556 c 0,0 0.64887,-0.50036 0.8156,-0.49681 0.16674,0.004 0.17419,0.33184 0.17419,0.40714 0,0.0753 -0.82736,0.70863 -0.82736,0.70863 l -1.96638,1.48251 1.05134,0.13892 c 0,0 0.69994,0.0268 0.88282,0.0586 0.18287,0.0319 0.21989,0.29943 0.16494,0.43289 -0.0549,0.13347 -0.15974,0.0447 -0.24721,0.0447 -0.0875,0 -0.28107,0.004 -0.37532,-0.0111 -0.0942,-0.015 -0.63789,-0.018 -0.73306,-0.0549 -0.0952,-0.0369 -0.60661,-0.0463 -0.8271,-0.15398 -0.22049,-0.10769 -0.19532,-0.20694 -0.19532,-0.20694 l -0.76132,0.51372 c 0,0 -0.85315,0.52051 -0.75684,0.61896 0.0963,0.0985 0.32049,0.0378 0.52362,0.0215 0.20314,-0.0163 0.74179,0.20991 0.94687,0.26821 0.20508,0.0583 0.45328,0.14735 0.73571,0.17855 0.28243,0.0312 0.25217,0.1064 0.24233,0.24959 -0.01,0.14319 -0.26269,0.12753 -0.42457,0.13787 -0.16188,0.0104 -0.4649,-0.04 -0.57117,-0.0762 -0.10626,-0.0362 -0.73073,-0.13182 -0.8704,-0.16032 -0.13967,-0.0285 -0.57222,-0.0399 -0.74416,-0.0873 -0.17194,-0.0474 -0.5326,-0.28393 -0.5326,-0.28393 0,0 -0.67567,0.39366 -0.86658,0.46366 -0.17675,0.0648 -0.98041,0.50606 -1.10771,0.57605 4.63031,2.00395 6.09104,-0.70917 6.72515,-1.32826 0.63934,-0.62419 0.9857,-2.88102 0.9857,-2.88102 0,0 0.90409,-1.71306 0.63177,-1.71863 -0.16684,-0.003 -0.33055,-0.005 -0.49113,-0.006 z" /><path
       id="path14-7"
       style="fill:#6f005e;fill-opacity:1;stroke-width:0.0676148"
       d="m 114.53198,43.819862 c 0,0 -3.11288,3.57166 -3.44703,5.24569 -0.33414,1.67403 1.29815,4.44606 1.29815,4.44606 0,0 0.0442,0.0333 0.12018,0.0711 l 0.55201,-2.3471 c 0,0 -0.54131,-0.49235 -0.80649,-0.80808 -0.26519,-0.31572 -0.77304,-0.84211 -0.40503,-0.94264 0.36801,-0.10053 0.44223,-0.24397 0.816,0.5569 0.37377,0.80086 0.58859,-0.52969 0.58859,-0.52969 0,0 -0.66285,-0.65327 -0.80808,-0.84453 -0.1538,-0.20254 -0.40202,-0.59033 -0.23929,-0.6739 0.16274,-0.0836 0.34931,0.33311 0.49523,0.45376 0.14579,0.12055 0.69912,0.52493 0.69912,0.52493 l 0.45231,-2.50834 c 0,0 0.17613,-0.77427 0.33306,-0.6846 0.29705,0.16975 0.39407,0.65548 0.30545,1.00194 -0.0886,0.34646 -0.24854,1.75997 -0.24854,1.75997 0,0 0.55404,-0.43956 0.71141,-0.45416 0.15736,-0.0146 -0.60887,0.46831 -0.71709,0.81309 -0.12835,0.40892 -0.30558,1.27913 -0.30558,1.27913 l 0.66848,-0.58053 c 0,0 0.30913,-0.39193 0.47899,-0.31959 0.32612,0.1389 -0.19202,0.67787 -0.19202,0.67787 l -0.64736,0.77505 -0.56191,0.39711 -0.40595,2.53106 c 0.11795,-0.0244 0.24583,-0.0646 0.38429,-0.12876 0.79806,-0.3699 3.14101,-3.70029 2.59194,-5.65243 -0.27588,-0.98084 -1.71084,-4.05926 -1.71084,-4.05926 z" /><path
       id="path15-2"
       style="fill:#6f005e;fill-opacity:1;stroke-width:0.0676148"
       d="m 133.84351,37.693342 c -0.0247,-0.002 -0.0513,10e-4 -0.08,0.007 -9.09566,2.03948 -11.1347,3.46467 -12.8839,6.15915 -1.50245,2.31439 -0.87862,4.67114 -0.67206,5.29336 0.10925,-0.0603 0.71939,-0.40283 0.79778,-0.58859 0.0858,-0.20334 -0.0921,-1.05594 0.0513,-1.61166 0.14332,-0.55573 0.31325,-1.56267 0.31325,-1.56267 0,0 -0.0882,-0.32321 0.10934,-0.33648 0.1975,-0.0133 0.21248,0.78456 0.21248,0.78456 l -0.28102,1.56874 c 0,0 -0.0829,0.75491 0.0932,0.77677 0.17614,0.0219 1.30118,-0.80186 1.30118,-0.80186 l 0.30955,-2.16328 0.54818,-2.5745 0.21698,-0.81679 c 0,0 0.19805,-0.20576 0.22886,-0.0685 0.0308,0.13721 0.0266,1.08751 0.0266,1.08751 l -0.283,1.2934 -0.38179,2.7277 1.83775,-1.26421 c 0,0 0.20133,-2.0771 0.33648,-2.51548 0.13516,-0.43838 0.63495,-2.08351 0.63495,-2.08351 l 0.16639,-0.64142 c 0,0 0.0924,-0.24148 0.21341,-0.18858 0.121,0.0529 0.23346,0.49146 0.17538,0.70322 -0.0581,0.21176 -0.7439,2.5172 -0.7439,2.5172 l -0.34731,1.65854 2.21385,-1.5801 c 0,0 0.35992,-2.64369 0.72607,-3.44386 0.36615,-0.80018 0.45138,-0.0555 0.45138,-0.0555 l -0.70216,2.94772 c 0,0 1.04328,-0.60003 2.01972,-1.57693 0.97645,-0.97691 1.99067,-1.92214 1.99067,-1.92214 0,0 -0.0493,-0.13105 0.14131,-0.12347 0.19059,0.008 0.23824,0.4499 0.0471,0.68394 -0.19109,0.23402 -1.77224,1.71083 -1.77224,1.71083 l -1.45847,1.31096 -0.37637,0.37849 c 0,0 0.24861,0.18698 0.81666,0.10393 0.56804,-0.0831 1.77251,-0.20536 1.77251,-0.20536 l 0.26808,-0.002 c 0,0 0.80537,-0.12372 0.1866,0.24603 -0.61878,0.36975 -1.84356,0.33636 -1.84356,0.33636 l -1.26566,0.009 -0.58067,-0.0358 -1.66911,1.52384 c 0,0 3.75412,0.009 3.9552,-0.0489 0.20108,-0.0582 0.33631,0.50226 -0.11503,0.51516 -0.45134,0.0129 -1.84606,0.1771 -1.84606,0.1771 0,0 -1.46085,0.0147 -1.71282,-0.009 -0.25197,-0.0237 -1.04843,-0.15795 -1.04843,-0.15795 l -1.87709,1.43484 c 0,0 1.204,0.30288 1.41634,0.32327 0.21234,0.0204 2.35106,-0.048 2.35106,-0.048 0,0 0.82184,-0.094 0.84598,0.0442 0.0242,0.13828 -0.34804,0.37804 -0.64881,0.41163 -0.30076,0.0336 -1.65815,0.0305 -1.65815,0.0305 l -1.42624,-0.0318 c 0,0 -0.62757,0.0489 -1.3416,-0.33095 -0.63978,-0.34032 -2.4404,1.4922 -2.82516,1.89415 4.70917,2.02356 9.24104,-1.74849 10.09242,-2.65507 0.8822,-0.93942 2.60343,-5.49753 2.60343,-5.49753 0,0 1.13419,-3.67545 0.36924,-3.71775 z m -13.59518,11.57981 c 0.005,0.0133 0.0181,0.0493 0.0181,0.0493 0.0134,0.007 0.0268,0.0124 0.0401,0.0193 z" /><path
       style="fill:#6f005e;fill-opacity:1;stroke-width:0.0676148"
       d="m 95.980384,49.395362 c 0,0 2.282229,-0.0988 2.513601,0.0618 0.231373,0.16059 0.738223,-0.31678 0.923628,-0.39111 0.185398,-0.0743 0.419215,-3.6739 0.664877,-3.6739 0.24567,0 -0.624741,-0.432 -0.724405,-0.41625 -0.09966,0.0158 -0.592608,3.33365 -0.458591,3.44016 0.134016,0.10653 -1.483951,-1.98756 -1.483951,-1.98756 0,0 -0.25758,-0.40609 -0.485553,-0.41779 -0.227978,-0.0117 -0.124133,0.535 -0.124133,0.535 0,0 0.491912,0.91698 0.578646,1.00158 0.08673,0.0846 0.714302,0.97544 0.714302,0.97544 0,0 0.327365,0.21158 0.253952,0.2768 -0.07341,0.0652 -0.374126,0.0443 -0.43814,0.0327 -0.06402,-0.0116 -1.251101,-0.0741 -1.251101,-0.0741 l -0.968705,0.0871 z"
       id="path17-7" /><path
       style="fill:#6f005e;fill-opacity:1;stroke-width:0.0676148"
       d="m 114.64639,33.532422 c 0,0 -1.114,-0.13236 -0.63224,-1.16137 0.48176,-1.029 1.01405,-0.83817 1.01405,-0.83817 0,0 0.4197,0.93526 0.27043,1.1629 -0.14927,0.22763 -0.33209,0.9084 -0.51893,0.88676 -0.18683,-0.0217 -0.13331,-0.0501 -0.13331,-0.0501 z"
       id="path18-6" /><path
       style="fill:#6f005e;fill-opacity:1;stroke-width:0.0676148"
       d="m 108.21293,58.219522 c -0.28447,0.16771 -1.65136,-0.8601 -1.65136,-0.8601 l -0.91131,-0.87467 c 0,0 -0.47596,-1.02613 0.23873,-0.49861 0.71469,0.52751 1.67224,1.39203 1.67224,1.39203 0,0 0.90189,0.57144 0.6517,0.84135 z"
       id="path19-3" /><path
       style="fill:#6f005e;fill-opacity:1;stroke-width:0.0676148"
       d="m 115.28114,34.284152 c 0.14764,-0.23892 0.86068,-1.29497 1.5107,-1.06153 0.65003,0.23344 0.75901,0.01 0.61693,0.61146 -0.14207,0.60159 -0.5771,1.24774 -1.02814,1.2002 -0.45105,-0.0476 -1.18743,-0.31554 -1.18743,-0.31554 0,0 -2.04972,-0.006 -4.47261,6.89379 -1.28995,3.67365 0.43318,1.1197 0.43318,1.1197 l 2.21455,-1.28445 c 0,0 0.25592,-0.24979 0.25592,0.0502 0,0.30002 -1.54662,1.32723 -1.54662,1.32723 l -1.36616,1.00372 c 0,0 -0.96779,1.31133 -1.26946,3.8961 -0.088,0.75413 -0.44202,4.34716 1.74239,9.6153 0.29243,0.70525 0.41633,0.81509 0.11962,0.81509 -0.2967,0 -0.78663,-0.27066 -1.0467,-1.08163 -0.26006,-0.81098 -1.21553,-3.84857 -1.22869,-4.2867 -0.0131,-0.43813 -0.1663,-2.84674 -0.1663,-2.84674 -0.74424,-0.86422 -1.4744,-1.07781 -2.23543,-2.71765 0,0 -1.98751,0.16524 -2.36214,-2.09792 -0.37462,-2.26316 2.82871,0.0248 3.01081,1.69102 0.1108,1.01392 1.55457,1.99662 1.55457,1.99662 l 0.28085,-3.83102 c 0,0 -1.31646,-1.76105 -1.04462,-1.92936 0.65234,-0.40388 0.54123,-0.0268 0.72038,0.3285 0.17913,0.35527 0.46036,0.80781 0.46036,0.80781 0,0 1.54913,-5.17951 2.60163,-6.79487 0.20425,-0.31348 -0.39464,-1.90175 -0.39464,-1.90175 0,0 -2.04076,-0.62209 -1.51253,-2.44995 0.52823,-1.82787 2.4531,1.36674 2.16847,1.94999 -0.20929,0.42888 0.22972,1.7637 0.22972,1.7637 0,0 1.45368,-2.45464 2.94139,-2.47137 z"
       id="path20-7"
       sodipodi:nodetypes="cssscsccsccsssssccssccsscscsscc" /><path
       style="fill:#6f005e;fill-opacity:1;stroke-width:0.0676148"
       d="m 111.79131,57.744782 c 0,0 -0.0905,0.26874 0.19022,0.30747 0.28076,0.0387 0.65714,-0.0192 0.68054,-0.36974 0.0234,-0.35054 0.37843,-0.96826 0.63573,-1.15566 0.2573,-0.1874 0.43908,-0.49847 0.67665,-0.51934 0.23757,-0.0209 1.1257,-0.14317 1.33979,-0.15293 0.21409,-0.01 0.72978,-0.0236 0.69604,-0.19478 -0.0337,-0.17118 -0.63717,-0.36313 -0.84923,-0.32909 -0.21206,0.0341 -1.48849,0.32753 -1.48849,0.32753 0,0 0.96544,-1.79397 1.7329,-2.42106 0.76747,-0.6271 1.48797,-1.37895 1.69101,-1.483 0.20304,-0.10406 1.72754,-1.21164 1.72754,-1.21164 l 0.73887,-0.44806 0.33321,-0.18937 c 0,0 0.92788,-0.75177 0.17634,-0.58199 -0.75155,0.16978 -1.40311,0.56533 -1.40311,0.56533 l -1.60626,1.09279 c 0,0 -2.99474,2.69157 -3.34779,3.12821 -0.35305,0.43663 -1.92396,3.63533 -1.92396,3.63533 z"
       id="path21-8" /><path
       style="fill:#6f005e;fill-opacity:1;stroke-width:0.0676148"
       d="m 122.56629,58.017082 c 0.12739,0.19134 0.50839,0.31118 0.73917,0.20101 0.23078,-0.11017 1.37858,-0.59066 1.37858,-0.59066 l 1.25142,-0.55363 c 0,0 0.57884,-0.62172 0.93054,-0.72965 0.3517,-0.10794 1.04441,-0.20361 1.22183,-0.20282 0.17743,5.4e-4 0.94766,0.0101 0.94766,0.0101 l 1.34959,-0.0655 -0.3944,-0.4992 c 0,0 -0.90479,0.0813 -1.10476,0.0713 -0.19997,-0.01 -1.19548,0.0704 -1.19548,0.0704 0,0 0.77243,-0.90624 0.81733,-0.99583 0.0449,-0.0896 0.86823,-1.14403 0.97563,-1.29689 0.1074,-0.15285 0.48334,-0.72784 0.55179,-0.80271 0.0685,-0.0749 -0.27512,-0.0899 -0.43376,-0.14507 -0.15862,-0.0552 -0.54976,0.60526 -0.54976,0.60526 l -0.68852,0.82338 -0.58022,0.72306 -0.19674,0.11526 c 0,0 -0.0575,-0.55347 -0.0643,-0.81011 -0.007,-0.25665 -0.2956,-1.43895 -0.2956,-1.43895 l -0.56475,0.0472 c 0,0 0.0508,0.54949 0.0967,0.61796 0.0459,0.0685 0.50733,1.88412 0.39549,1.92995 -0.11185,0.0458 -0.79332,0.90643 -0.9037,0.90643 -0.11039,0 -0.86462,0.61669 -1.08792,0.65597 -0.22331,0.0393 -1.14222,0.55696 -1.14222,0.55696 l -0.81017,0.34403 z"
       id="path22-9" /><path
       style="fill:#6f005e;fill-opacity:1;stroke-width:0.0676148"
       d="m 115.57837,55.345942 c 0,0 2.36755,-0.0741 2.44929,-0.0409 0.0817,0.0332 0.52846,0.52063 0.64521,0.55334 0.11676,0.0327 0.81647,0.38734 0.81647,0.38734 0,0 0.6408,0.23984 0.76743,0.2478 0.12664,0.008 0.34936,-0.16935 0.25322,-0.22481 -0.0962,-0.0555 -0.49769,-0.26152 -0.49769,-0.26152 l -1.36061,-0.72807 c 0,0 0.69891,-0.19495 0.98842,-0.1922 0.28951,0.003 1.45741,0.0504 1.62789,0.0197 0.17048,-0.0307 0.65198,-0.128 0.86841,-0.13144 0.21645,-0.003 0.68753,-0.0814 0.70601,-0.16014 0.0185,-0.0787 0.0146,-0.16711 -0.0606,-0.30018 -0.0751,-0.13306 -0.31322,-0.18716 -0.53171,-0.15588 -0.2185,0.0313 -0.83708,0.0417 -0.83708,0.0417 l -1.184,0.0283 -1.17128,0.0213 c 0,0 -0.1202,-0.21301 0.11205,-0.30201 0.23225,-0.089 0.35048,-0.14037 0.46381,-0.35677 0.11333,-0.21641 0.22802,-0.38969 0.10289,-0.45026 -0.12513,-0.0606 -0.33918,-0.1478 -0.43269,-0.0405 -0.0935,0.10733 -0.79993,0.58198 -0.79993,0.58198 l -0.47871,0.42259 -0.30795,0.33426 -0.86747,0.10108 -0.32372,0.0478 -0.73188,0.007 c 0,0 0.83937,-1.29853 1.81582,-1.75374 0.97644,-0.4552 1.88298,-0.60809 2.06185,-0.60291 0.17887,0.005 1.4891,0.10766 1.76398,0.19111 0.27487,0.0834 1.4361,0.66134 1.4361,0.66134 l 1.39678,0.81004 0.3407,0.2938 c 0,0 -0.67058,0.80847 -0.93385,1.03272 -0.26328,0.22426 -1.52652,1.18593 -1.62752,1.18593 -0.101,0 -1.34667,0.63975 -2.19856,0.60117 -0.85189,-0.0386 -2.61218,-0.45444 -3.17298,-0.76799 -0.56079,-0.31355 -1.27074,-0.65085 -1.27074,-0.65085 0,0 -1.6172,0.17249 -2.08199,0.71839 -0.46478,0.54589 -0.71302,1.02966 -0.71302,1.02966 l -0.10492,0.44612 c 0,0 -0.12836,0.14722 -0.196,0.13629 -0.0676,-0.011 -0.47938,-0.13648 -0.47938,-0.13648 l -0.004,-0.396 0.33532,-0.85198 0.6478,-0.8988 0.82824,-1.47782 c 0,0 1.86374,-2.07258 2.24975,-2.42885 0.38601,-0.35628 2.30139,-1.72829 2.30139,-1.72829 l 1.38345,-0.78778 c 0,0 0.41348,-0.18033 0.49587,-0.13323 0.0824,0.0471 0.10962,0.4319 -0.0513,0.51326 -0.16087,0.0814 -2.3003,1.47904 -2.3003,1.47904 l -1.42361,1.15059 -1.2365,1.19174 -1.01302,1.36345 -0.35086,0.74013 z"
       id="path28-8" /><path
       style="fill:#6f005e;fill-opacity:1;stroke-width:0.240288"
       d="m 141.4883,54.890357 0.25123,-15.40089 8.38905,-0.2204 -0.59096,2.10288 -6.48155,0.82126 0.13427,2.3913 3.8287,-1.17903 -0.42953,3.29776 -2.77818,0.85889 0.0473,7.50931 z"
       id="path38-4"
       sodipodi:nodetypes="ccccccccccc" /><path
       style="fill:#6f005e;fill-opacity:1;stroke-width:0.240288"
       d="m 150.71492,39.205977 -0.69496,15.70345 5.8576,-0.0673 -0.008,-2.16484 -3.5969,0.0319 -0.0548,-13.61002 z"
       id="path39-7"
       sodipodi:nodetypes="ccccccc" /><path
       id="path40-7"
       style="fill:#6f005e;fill-opacity:1;stroke-width:0.240288"
       d="m 162.15905,38.685917 -5.02428,0.65245 0.31654,15.19966 4.97068,0.12488 z m -1.34699,1.96969 0.27585,10.65273 -2.26351,0.0876 0.21524,-10.49951 z" /><path
       id="path41-7"
       style="fill:#6f005e;fill-opacity:1;stroke-width:0.240288"
       d="m 163.54498,38.761907 0.15013,16.21215 1.83051,0.42094 -0.49783,-6.73327 3.04617,6.01936 1.70029,0.0306 -3.48085,-7.7508 3.05122,-1.60012 0.0536,-6.15294 z m 1.47973,1.53304 2.72176,0.29915 -0.29522,3.68766 -2.36845,1.52575 z" /><path
       id="path42-6"
       style="fill:#6f005e;fill-opacity:1;stroke-width:0.215437"
       d="m 145.67314,57.591697 -0.19364,8.15571 -4.13442,-0.476236 -0.11814,8.499454 3.9321,-0.406204 2.09484,0.0022 -0.28651,-15.4808 z m -0.591,10.008498 0.19307,3.597984 -1.79066,0.130958 -0.27978,-3.438227 z" /><path
       id="path43-4"
       style="fill:#6f005e;fill-opacity:1;stroke-width:0.231383"
       d="m 151.05193,63.860561 c -2.29906,-0.03034 -3.35242,3.632648 -3.35242,3.632648 l 0.50584,5.693429 5.07186,-0.641214 0.19427,-2.7884 -1.09966,0.322524 -0.23825,1.197279 -2.45407,0.226479 -0.15059,-2.259637 c 1.79751,-0.585658 2.19121,-0.826389 3.61909,-1.42504 0,0 1.23987,-3.096924 -1.48454,-3.86619 -0.21284,-0.0601 -0.41669,-0.08929 -0.61153,-0.09192 z m 0.32959,1.804435 c 0.0877,-0.0023 0.12983,0.0034 0.12983,0.0034 l 0.24741,1.014495 -1.99098,0.456804 c 0,0 0.11599,-1.166073 0.77984,-1.339584 0.4149,-0.108408 0.68768,-0.132574 0.8339,-0.135573 z" /><path
       style="fill:#6f005e;fill-opacity:1;stroke-width:0.240288"
       d="m 154.19489,60.413997 0.0442,2.55105 4.3434,-0.01 -0.0739,9.19297 1.92809,-0.15141 0.16183,-8.93836 2.95468,-0.0286 -0.47031,-3.29538 z"
       id="path44-6"
       sodipodi:nodetypes="ccccccccc" /><path
       style="fill:#6f005e;fill-opacity:1;stroke-width:0.223396"
       d="m 165.20611,60.532397 -0.7947,11.47822 5.75284,0.0942 -0.0985,-2.11936 -3.67333,-0.0252 0.25895,-3.93668 2.77309,-0.034 0.18107,-1.41508 -2.91532,-0.10174 0.14282,-1.66428 3.21486,-0.34266 0.30674,-1.75617 z"
       id="path45-2"
       sodipodi:nodetypes="ccccccccccccc" /><path
       style="fill:#6f005e;fill-opacity:1;stroke-width:0.269233"
       d="m 167.38177,58.907967 1.9103,-1.89116 1.04612,0.54477 -1.95439,1.85449 z"
       id="path50-4"
       sodipodi:nodetypes="ccccc" /><path
       style="fill:#cd0038;fill-opacity:1;stroke-width:0.098322"
       d="m 141.5294,76.303912 28.38851,-0.21942 0.16618,1.17762 -28.88719,0.33758 z"
       id="path51-1" /><path
       style="fill:#cd0038;fill-opacity:1;stroke-width:0.0594758"
       d="m 142.06117,78.996202 28.38853,-0.0803 0.16617,0.4309 -28.8872,0.12352 z"
       id="path51-9-6" /></g></svg>
